solid OpenSCAD_Model
  facet normal -1 0 0
    outer loop
      vertex 22.5 10 5
      vertex 22.5 16 0
      vertex 22.5 10 0
    endloop
  endfacet
  facet normal -1 0 0
    outer loop
      vertex 22.5 40 0
      vertex 22.5 34 0
      vertex 22.5 40 5
    endloop
  endfacet
  facet normal -1 0 0
    outer loop
      vertex 22.5 34 21.5
      vertex 22.5 50 5
      vertex 22.5 40 5
    endloop
  endfacet
  facet normal -1 0 0
    outer loop
      vertex 22.5 34 21.5
      vertex 22.5 40 5
      vertex 22.5 34 0
    endloop
  endfacet
  facet normal -1 0 0
    outer loop
      vertex 22.5 50 5
      vertex 22.5 34 21.5
      vertex 22.5 50 50
    endloop
  endfacet
  facet normal -1 0 0
    outer loop
      vertex 22.5 16 21.5
      vertex 22.5 50 50
      vertex 22.5 34 21.5
    endloop
  endfacet
  facet normal -1 0 0
    outer loop
      vertex 22.5 16 0
      vertex 22.5 10 5
      vertex 22.5 16 21.5
    endloop
  endfacet
  facet normal -1 0 0
    outer loop
      vertex 22.5 0 5
      vertex 22.5 16 21.5
      vertex 22.5 10 5
    endloop
  endfacet
  facet normal -1 0 0
    outer loop
      vertex 22.5 16 21.5
      vertex 22.5 0 50
      vertex 22.5 50 50
    endloop
  endfacet
  facet normal -1 0 0
    outer loop
      vertex 22.5 0 50
      vertex 22.5 16 21.5
      vertex 22.5 0 5
    endloop
  endfacet
  facet normal -1 -0 0
    outer loop
      vertex 22.5 19.5836 9.04493
      vertex 22.5 18 4.5
      vertex 22.5 19.5836 10.9551
    endloop
  endfacet
  facet normal -1 -0 0
    outer loop
      vertex 22.5 20.2369 7.25
      vertex 22.5 18 4.5
      vertex 22.5 19.5836 9.04493
    endloop
  endfacet
  facet normal -1 -0 0
    outer loop
      vertex 22.5 21.4647 5.78676
      vertex 22.5 18 4.5
      vertex 22.5 20.2369 7.25
    endloop
  endfacet
  facet normal -1 -0 0
    outer loop
      vertex 22.5 23.1189 4.83169
      vertex 22.5 18 4.5
      vertex 22.5 21.4647 5.78676
    endloop
  endfacet
  facet normal -1 0 0
    outer loop
      vertex 22.5 18 4.5
      vertex 22.5 23.1189 4.83169
      vertex 22.5 25 4.5
    endloop
  endfacet
  facet normal -1 0 0
    outer loop
      vertex 22.5 30.4164 10.9551
      vertex 22.5 32 4.5
      vertex 22.5 30.4164 9.04493
    endloop
  endfacet
  facet normal -1 0 0
    outer loop
      vertex 22.5 32 4.5
      vertex 22.5 29.7631 7.25
      vertex 22.5 30.4164 9.04493
    endloop
  endfacet
  facet normal -1 0 0
    outer loop
      vertex 22.5 32 4.5
      vertex 22.5 28.5353 5.78676
      vertex 22.5 29.7631 7.25
    endloop
  endfacet
  facet normal -1 0 0
    outer loop
      vertex 22.5 32 4.5
      vertex 22.5 26.8811 4.83169
      vertex 22.5 28.5353 5.78676
    endloop
  endfacet
  facet normal -1 0 -0
    outer loop
      vertex 22.5 26.8811 4.83169
      vertex 22.5 32 4.5
      vertex 22.5 25 4.5
    endloop
  endfacet
  facet normal -1 0 0
    outer loop
      vertex 22.5 32 4.5
      vertex 22.5 30.4164 10.9551
      vertex 22.5 32 19.5
    endloop
  endfacet
  facet normal -1 0 0
    outer loop
      vertex 22.5 30.3184 11.2243
      vertex 22.5 32 19.5
      vertex 22.5 30.4164 10.9551
    endloop
  endfacet
  facet normal -1 0 0
    outer loop
      vertex 22.5 29.7631 12.75
      vertex 22.5 32 19.5
      vertex 22.5 30.3184 11.2243
    endloop
  endfacet
  facet normal -1 0 0
    outer loop
      vertex 22.5 28.7195 13.9938
      vertex 22.5 32 19.5
      vertex 22.5 29.7631 12.75
    endloop
  endfacet
  facet normal -1 0 0
    outer loop
      vertex 22.5 28.5353 14.2132
      vertex 22.5 32 19.5
      vertex 22.5 28.7195 13.9938
    endloop
  endfacet
  facet normal -1 0 0
    outer loop
      vertex 22.5 26.8811 15.1683
      vertex 22.5 32 19.5
      vertex 22.5 28.5353 14.2132
    endloop
  endfacet
  facet normal -1 0 0
    outer loop
      vertex 22.5 25 15.5
      vertex 22.5 32 19.5
      vertex 22.5 26.8811 15.1683
    endloop
  endfacet
  facet normal -1 0 0
    outer loop
      vertex 22.5 18 19.5
      vertex 22.5 25 15.5
      vertex 22.5 23.1189 15.1683
    endloop
  endfacet
  facet normal -1 0 0
    outer loop
      vertex 22.5 25 15.5
      vertex 22.5 18 19.5
      vertex 22.5 32 19.5
    endloop
  endfacet
  facet normal -1 0 0
    outer loop
      vertex 22.5 21.4647 14.2132
      vertex 22.5 18 19.5
      vertex 22.5 23.1189 15.1683
    endloop
  endfacet
  facet normal -1 0 0
    outer loop
      vertex 22.5 20.2369 12.75
      vertex 22.5 18 19.5
      vertex 22.5 21.4647 14.2132
    endloop
  endfacet
  facet normal -1 0 0
    outer loop
      vertex 22.5 19.5836 10.9551
      vertex 22.5 18 19.5
      vertex 22.5 20.2369 12.75
    endloop
  endfacet
  facet normal -1 0 0
    outer loop
      vertex 22.5 18 19.5
      vertex 22.5 19.5836 10.9551
      vertex 22.5 18 4.5
    endloop
  endfacet
  facet normal -0 0 1
    outer loop
      vertex 22.5 50 50
      vertex 27.5 0 50
      vertex 27.5 50 50
    endloop
  endfacet
  facet normal 0 0 1
    outer loop
      vertex 27.5 0 50
      vertex 22.5 50 50
      vertex 22.5 0 50
    endloop
  endfacet
  facet normal 1 -0 0
    outer loop
      vertex 27.5 29.7631 12.75
      vertex 27.5 50 5
      vertex 27.5 50 50
    endloop
  endfacet
  facet normal 1 -0 0
    outer loop
      vertex 27.5 30.4164 9.04493
      vertex 27.5 40 5
      vertex 27.5 30.4164 10.9551
    endloop
  endfacet
  facet normal 1 0 0
    outer loop
      vertex 27.5 50 5
      vertex 27.5 29.7631 12.75
      vertex 27.5 40 5
    endloop
  endfacet
  facet normal 1 0 0
    outer loop
      vertex 27.5 40 5
      vertex 27.5 30.2967 11.2841
      vertex 27.5 30.4164 10.9551
    endloop
  endfacet
  facet normal 1 0 0
    outer loop
      vertex 27.5 40 5
      vertex 27.5 29.7631 12.75
      vertex 27.5 30.2967 11.2841
    endloop
  endfacet
  facet normal 1 0 0
    outer loop
      vertex 27.5 50 50
      vertex 27.5 28.7604 13.945
      vertex 27.5 29.7631 12.75
    endloop
  endfacet
  facet normal 1 0 0
    outer loop
      vertex 27.5 50 50
      vertex 27.5 28.5353 14.2132
      vertex 27.5 28.7604 13.945
    endloop
  endfacet
  facet normal 1 0 0
    outer loop
      vertex 27.5 50 50
      vertex 27.5 26.8811 15.1683
      vertex 27.5 28.5353 14.2132
    endloop
  endfacet
  facet normal 1 0 0
    outer loop
      vertex 27.5 50 50
      vertex 27.5 25 15.5
      vertex 27.5 26.8811 15.1683
    endloop
  endfacet
  facet normal 1 -0 0
    outer loop
      vertex 27.5 0 50
      vertex 27.5 25 15.5
      vertex 27.5 50 50
    endloop
  endfacet
  facet normal 1 0 0
    outer loop
      vertex 27.5 25 15.5
      vertex 27.5 0 50
      vertex 27.5 23.1189 15.1683
    endloop
  endfacet
  facet normal 1 0 0
    outer loop
      vertex 27.5 23.1189 15.1683
      vertex 27.5 0 50
      vertex 27.5 21.4647 14.2132
    endloop
  endfacet
  facet normal 1 0 0
    outer loop
      vertex 27.5 19.5836 10.9551
      vertex 27.5 10 5
      vertex 27.5 19.5836 9.04493
    endloop
  endfacet
  facet normal 1 0 0
    outer loop
      vertex 27.5 20.2369 12.75
      vertex 27.5 10 5
      vertex 27.5 19.5836 10.9551
    endloop
  endfacet
  facet normal 1 0 0
    outer loop
      vertex 27.5 21.4647 14.2132
      vertex 27.5 0 50
      vertex 27.5 20.2369 12.75
    endloop
  endfacet
  facet normal 1 0 0
    outer loop
      vertex 27.5 0 5
      vertex 27.5 20.2369 12.75
      vertex 27.5 0 50
    endloop
  endfacet
  facet normal 1 0 0
    outer loop
      vertex 27.5 20.2369 12.75
      vertex 27.5 0 5
      vertex 27.5 10 5
    endloop
  endfacet
  facet normal 1 -0 0
    outer loop
      vertex 27.5 29.7631 7.25
      vertex 27.5 40 5
      vertex 27.5 30.4164 9.04493
    endloop
  endfacet
  facet normal 1 0 0
    outer loop
      vertex 27.5 40 5
      vertex 27.5 29.7631 7.25
      vertex 27.5 40 0
    endloop
  endfacet
  facet normal 1 -0 0
    outer loop
      vertex 27.5 28.5353 5.78676
      vertex 27.5 40 0
      vertex 27.5 29.7631 7.25
    endloop
  endfacet
  facet normal 1 -0 0
    outer loop
      vertex 27.5 26.8811 4.83169
      vertex 27.5 40 0
      vertex 27.5 28.5353 5.78676
    endloop
  endfacet
  facet normal 1 -0 0
    outer loop
      vertex 27.5 25 4.5
      vertex 27.5 40 0
      vertex 27.5 26.8811 4.83169
    endloop
  endfacet
  facet normal 1 0 0
    outer loop
      vertex 27.5 10 0
      vertex 27.5 25 4.5
      vertex 27.5 23.1189 4.83169
    endloop
  endfacet
  facet normal 1 0 0
    outer loop
      vertex 27.5 10 5
      vertex 27.5 20.2369 7.25
      vertex 27.5 19.5836 9.04493
    endloop
  endfacet
  facet normal 1 0 0
    outer loop
      vertex 27.5 10 0
      vertex 27.5 20.2369 7.25
      vertex 27.5 10 5
    endloop
  endfacet
  facet normal 1 0 0
    outer loop
      vertex 27.5 20.2369 7.25
      vertex 27.5 10 0
      vertex 27.5 21.4647 5.78676
    endloop
  endfacet
  facet normal 1 0 0
    outer loop
      vertex 27.5 21.4647 5.78676
      vertex 27.5 10 0
      vertex 27.5 23.1189 4.83169
    endloop
  endfacet
  facet normal 1 0 0
    outer loop
      vertex 27.5 25 4.5
      vertex 27.5 10 0
      vertex 27.5 40 0
    endloop
  endfacet
  facet normal 0 0 -1
    outer loop
      vertex 2.5 16 0
      vertex 22.5 34 0
      vertex 22.5 16 0
    endloop
  endfacet
  facet normal -0 0 -1
    outer loop
      vertex 22.5 34 0
      vertex 2.5 16 0
      vertex 2.5 34 0
    endloop
  endfacet
  facet normal 0 0 -1
    outer loop
      vertex 50 0 0
      vertex 27.5 10 0
      vertex 50 10 0
    endloop
  endfacet
  facet normal 0 0 -1
    outer loop
      vertex 22.5 16 0
      vertex 27.5 10 0
      vertex 22.5 10 0
    endloop
  endfacet
  facet normal 0 0 -1
    outer loop
      vertex 50 0 0
      vertex 22.5 10 0
      vertex 27.5 10 0
    endloop
  endfacet
  facet normal 0 0 -1
    outer loop
      vertex 0 0 0
      vertex 22.5 10 0
      vertex 50 0 0
    endloop
  endfacet
  facet normal -0 0 -1
    outer loop
      vertex 22.5 10 0
      vertex 0 0 0
      vertex 0 10 0
    endloop
  endfacet
  facet normal 0 0 -1
    outer loop
      vertex 27.5 40 0
      vertex 50 50 0
      vertex 50 40 0
    endloop
  endfacet
  facet normal 0 0 -1
    outer loop
      vertex 27.5 10 0
      vertex 22.5 16 0
      vertex 27.5 40 0
    endloop
  endfacet
  facet normal 0 0 -1
    outer loop
      vertex 22.5 34 0
      vertex 27.5 40 0
      vertex 22.5 16 0
    endloop
  endfacet
  facet normal 0 0 -1
    outer loop
      vertex 22.5 40 0
      vertex 27.5 40 0
      vertex 22.5 34 0
    endloop
  endfacet
  facet normal 0 0 -1
    outer loop
      vertex 22.5 40 0
      vertex 50 50 0
      vertex 27.5 40 0
    endloop
  endfacet
  facet normal 0 0 -1
    outer loop
      vertex 0 50 0
      vertex 22.5 40 0
      vertex 0 40 0
    endloop
  endfacet
  facet normal 0 0 -1
    outer loop
      vertex 22.5 40 0
      vertex 0 50 0
      vertex 50 50 0
    endloop
  endfacet
  facet normal 0 -1 0
    outer loop
      vertex 0 0 0
      vertex 22.5 0 5
      vertex 0 0 5
    endloop
  endfacet
  facet normal 0 -1 -0
    outer loop
      vertex 22.5 0 5
      vertex 0 0 0
      vertex 27.5 0 5
    endloop
  endfacet
  facet normal 0 -1 0
    outer loop
      vertex 50 0 0
      vertex 27.5 0 5
      vertex 0 0 0
    endloop
  endfacet
  facet normal 0 -1 0
    outer loop
      vertex 27.5 0 5
      vertex 50 0 0
      vertex 50 0 5
    endloop
  endfacet
  facet normal 0 -1 0
    outer loop
      vertex 22.5 0 5
      vertex 27.5 0 50
      vertex 22.5 0 50
    endloop
  endfacet
  facet normal 0 -1 -0
    outer loop
      vertex 27.5 0 50
      vertex 22.5 0 5
      vertex 27.5 0 5
    endloop
  endfacet
  facet normal 0 1 -0
    outer loop
      vertex 50 50 0
      vertex 27.5 50 5
      vertex 50 50 5
    endloop
  endfacet
  facet normal 0 1 0
    outer loop
      vertex 27.5 50 5
      vertex 50 50 0
      vertex 22.5 50 5
    endloop
  endfacet
  facet normal 0 1 0
    outer loop
      vertex 0 50 0
      vertex 22.5 50 5
      vertex 50 50 0
    endloop
  endfacet
  facet normal 0 1 0
    outer loop
      vertex 22.5 50 5
      vertex 0 50 0
      vertex 0 50 5
    endloop
  endfacet
  facet normal 0 1 -0
    outer loop
      vertex 27.5 50 5
      vertex 22.5 50 50
      vertex 27.5 50 50
    endloop
  endfacet
  facet normal 0 1 0
    outer loop
      vertex 22.5 50 50
      vertex 27.5 50 5
      vertex 22.5 50 5
    endloop
  endfacet
  facet normal 0 -0.173648 0.984808
    outer loop
      vertex 22.5 26.8811 4.83169
      vertex 27.5 25 4.5
      vertex 27.5 26.8811 4.83169
    endloop
  endfacet
  facet normal 0 -0.173648 0.984808
    outer loop
      vertex 27.5 25 4.5
      vertex 22.5 26.8811 4.83169
      vertex 22.5 25 4.5
    endloop
  endfacet
  facet normal 0 -0.173648 -0.984808
    outer loop
      vertex 22.5 25 15.5
      vertex 27.5 26.8811 15.1683
      vertex 27.5 25 15.5
    endloop
  endfacet
  facet normal -0 -0.173648 -0.984808
    outer loop
      vertex 27.5 26.8811 15.1683
      vertex 22.5 25 15.5
      vertex 22.5 26.8811 15.1683
    endloop
  endfacet
  facet normal 0 1 -0
    outer loop
      vertex 27.5 19.5836 9.04493
      vertex 22.5 19.5836 10.9551
      vertex 27.5 19.5836 10.9551
    endloop
  endfacet
  facet normal 0 1 0
    outer loop
      vertex 22.5 19.5836 10.9551
      vertex 27.5 19.5836 9.04493
      vertex 22.5 19.5836 9.04493
    endloop
  endfacet
  facet normal 0 -0.5 0.866025
    outer loop
      vertex 22.5 28.5353 5.78676
      vertex 27.5 26.8811 4.83169
      vertex 27.5 28.5353 5.78676
    endloop
  endfacet
  facet normal 0 -0.5 0.866025
    outer loop
      vertex 27.5 26.8811 4.83169
      vertex 22.5 28.5353 5.78676
      vertex 22.5 26.8811 4.83169
    endloop
  endfacet
  facet normal 0 -0.939692 0.342021
    outer loop
      vertex 22.5 29.7631 7.25
      vertex 27.5 30.4164 9.04493
      vertex 22.5 30.4164 9.04493
    endloop
  endfacet
  facet normal 0 -0.939692 0.342021
    outer loop
      vertex 27.5 30.4164 9.04493
      vertex 22.5 29.7631 7.25
      vertex 27.5 29.7631 7.25
    endloop
  endfacet
  facet normal 0 -0.939692 -0.34202
    outer loop
      vertex 22.5 29.7631 12.75
      vertex 27.5 30.2967 11.2841
      vertex 27.5 29.7631 12.75
    endloop
  endfacet
  facet normal -2.70954e-007 -0.939692 -0.342021
    outer loop
      vertex 27.5 30.2967 11.2841
      vertex 22.5 29.7631 12.75
      vertex 22.5 30.3184 11.2243
    endloop
  endfacet
  facet normal 0 -0.5 -0.866025
    outer loop
      vertex 22.5 26.8811 15.1683
      vertex 27.5 28.5353 14.2132
      vertex 27.5 26.8811 15.1683
    endloop
  endfacet
  facet normal -0 -0.5 -0.866025
    outer loop
      vertex 27.5 28.5353 14.2132
      vertex 22.5 26.8811 15.1683
      vertex 22.5 28.5353 14.2132
    endloop
  endfacet
  facet normal -1.17363e-007 -0.766045 -0.642787
    outer loop
      vertex 22.5 29.7631 12.75
      vertex 27.5 28.7604 13.945
      vertex 22.5 28.7195 13.9938
    endloop
  endfacet
  facet normal 0 -0.766045 -0.642787
    outer loop
      vertex 27.5 28.7604 13.945
      vertex 22.5 29.7631 12.75
      vertex 27.5 29.7631 12.75
    endloop
  endfacet
  facet normal 0 -0.766043 -0.642789
    outer loop
      vertex 22.5 28.7195 13.9938
      vertex 27.5 28.5353 14.2132
      vertex 22.5 28.5353 14.2132
    endloop
  endfacet
  facet normal -1.32829e-007 -0.766044 -0.642788
    outer loop
      vertex 27.5 28.5353 14.2132
      vertex 22.5 28.7195 13.9938
      vertex 27.5 28.7604 13.945
    endloop
  endfacet
  facet normal -0 0.173648 0.984808
    outer loop
      vertex 22.5 25 4.5
      vertex 27.5 23.1189 4.83169
      vertex 27.5 25 4.5
    endloop
  endfacet
  facet normal 0 0.173648 0.984808
    outer loop
      vertex 27.5 23.1189 4.83169
      vertex 22.5 25 4.5
      vertex 22.5 23.1189 4.83169
    endloop
  endfacet
  facet normal 0 -0.766045 0.642787
    outer loop
      vertex 22.5 28.5353 5.78676
      vertex 27.5 29.7631 7.25
      vertex 22.5 29.7631 7.25
    endloop
  endfacet
  facet normal 0 -0.766045 0.642787
    outer loop
      vertex 27.5 29.7631 7.25
      vertex 22.5 28.5353 5.78676
      vertex 27.5 28.5353 5.78676
    endloop
  endfacet
  facet normal 0 -1 0
    outer loop
      vertex 22.5 30.4164 9.04493
      vertex 27.5 30.4164 10.9551
      vertex 22.5 30.4164 10.9551
    endloop
  endfacet
  facet normal 0 -1 -0
    outer loop
      vertex 27.5 30.4164 10.9551
      vertex 22.5 30.4164 9.04493
      vertex 27.5 30.4164 9.04493
    endloop
  endfacet
  facet normal -0 -0.939692 -0.342021
    outer loop
      vertex 27.5 30.4164 10.9551
      vertex 22.5 30.3184 11.2243
      vertex 22.5 30.4164 10.9551
    endloop
  endfacet
  facet normal -2.25178e-007 -0.939691 -0.342025
    outer loop
      vertex 22.5 30.3184 11.2243
      vertex 27.5 30.4164 10.9551
      vertex 27.5 30.2967 11.2841
    endloop
  endfacet
  facet normal 0 0.5 -0.866025
    outer loop
      vertex 22.5 21.4647 14.2132
      vertex 27.5 23.1189 15.1683
      vertex 27.5 21.4647 14.2132
    endloop
  endfacet
  facet normal 0 0.5 -0.866025
    outer loop
      vertex 27.5 23.1189 15.1683
      vertex 22.5 21.4647 14.2132
      vertex 22.5 23.1189 15.1683
    endloop
  endfacet
  facet normal -0 0.5 0.866025
    outer loop
      vertex 22.5 23.1189 4.83169
      vertex 27.5 21.4647 5.78676
      vertex 27.5 23.1189 4.83169
    endloop
  endfacet
  facet normal 0 0.5 0.866025
    outer loop
      vertex 27.5 21.4647 5.78676
      vertex 22.5 23.1189 4.83169
      vertex 22.5 21.4647 5.78676
    endloop
  endfacet
  facet normal 0 0.939693 -0.34202
    outer loop
      vertex 27.5 19.5836 10.9551
      vertex 22.5 20.2369 12.75
      vertex 27.5 20.2369 12.75
    endloop
  endfacet
  facet normal 0 0.939693 -0.34202
    outer loop
      vertex 22.5 20.2369 12.75
      vertex 27.5 19.5836 10.9551
      vertex 22.5 19.5836 10.9551
    endloop
  endfacet
  facet normal 0 0.173648 -0.984808
    outer loop
      vertex 22.5 23.1189 15.1683
      vertex 27.5 25 15.5
      vertex 27.5 23.1189 15.1683
    endloop
  endfacet
  facet normal 0 0.173648 -0.984808
    outer loop
      vertex 27.5 25 15.5
      vertex 22.5 23.1189 15.1683
      vertex 22.5 25 15.5
    endloop
  endfacet
  facet normal 0 0.766044 -0.642788
    outer loop
      vertex 27.5 20.2369 12.75
      vertex 22.5 21.4647 14.2132
      vertex 27.5 21.4647 14.2132
    endloop
  endfacet
  facet normal 0 0.766044 -0.642788
    outer loop
      vertex 22.5 21.4647 14.2132
      vertex 27.5 20.2369 12.75
      vertex 22.5 20.2369 12.75
    endloop
  endfacet
  facet normal 0 0.766044 0.642788
    outer loop
      vertex 27.5 21.4647 5.78676
      vertex 22.5 20.2369 7.25
      vertex 27.5 20.2369 7.25
    endloop
  endfacet
  facet normal 0 0.766044 0.642788
    outer loop
      vertex 22.5 20.2369 7.25
      vertex 27.5 21.4647 5.78676
      vertex 22.5 21.4647 5.78676
    endloop
  endfacet
  facet normal 0 0.939693 0.34202
    outer loop
      vertex 27.5 20.2369 7.25
      vertex 22.5 19.5836 9.04493
      vertex 27.5 19.5836 9.04493
    endloop
  endfacet
  facet normal 0 0.939693 0.34202
    outer loop
      vertex 22.5 19.5836 9.04493
      vertex 27.5 20.2369 7.25
      vertex 22.5 20.2369 7.25
    endloop
  endfacet
  facet normal -1 0 0
    outer loop
      vertex 2.5 34 0
      vertex 2.5 32 4.5
      vertex 2.5 34 21.5
    endloop
  endfacet
  facet normal -1 0 0
    outer loop
      vertex 2.5 34 0
      vertex 2.5 30 4.5
      vertex 2.5 32 4.5
    endloop
  endfacet
  facet normal -1 0 0
    outer loop
      vertex 2.5 30 4.5
      vertex 2.5 20 4.5
      vertex 2.5 30 6.5
    endloop
  endfacet
  facet normal -1 0 0
    outer loop
      vertex 2.5 34 0
      vertex 2.5 20 4.5
      vertex 2.5 30 4.5
    endloop
  endfacet
  facet normal -1 0 0
    outer loop
      vertex 2.5 16 0
      vertex 2.5 20 4.5
      vertex 2.5 34 0
    endloop
  endfacet
  facet normal -1 0 0
    outer loop
      vertex 2.5 16 21.5
      vertex 2.5 18 4.5
      vertex 2.5 16 0
    endloop
  endfacet
  facet normal -1 -0 0
    outer loop
      vertex 2.5 20 4.5
      vertex 2.5 16 0
      vertex 2.5 18 4.5
    endloop
  endfacet
  facet normal -1 0 0
    outer loop
      vertex 2.5 32 19.5
      vertex 2.5 34 21.5
      vertex 2.5 32 4.5
    endloop
  endfacet
  facet normal -1 0 0
    outer loop
      vertex 2.5 18 19.5
      vertex 2.5 34 21.5
      vertex 2.5 32 19.5
    endloop
  endfacet
  facet normal -1 0 0
    outer loop
      vertex 2.5 18 19.5
      vertex 2.5 16 21.5
      vertex 2.5 34 21.5
    endloop
  endfacet
  facet normal -1 0 0
    outer loop
      vertex 2.5 18 4.5
      vertex 2.5 16 21.5
      vertex 2.5 18 19.5
    endloop
  endfacet
  facet normal -1 -0 0
    outer loop
      vertex 2.5 30 6.5
      vertex 2.5 20 4.5
      vertex 2.5 20 6.5
    endloop
  endfacet
  facet normal -0 0 1
    outer loop
      vertex 2.5 34 21.5
      vertex 22.5 16 21.5
      vertex 22.5 34 21.5
    endloop
  endfacet
  facet normal 0 0 1
    outer loop
      vertex 22.5 16 21.5
      vertex 2.5 34 21.5
      vertex 2.5 16 21.5
    endloop
  endfacet
  facet normal 0 -1 0
    outer loop
      vertex 2.5 16 0
      vertex 22.5 16 21.5
      vertex 2.5 16 21.5
    endloop
  endfacet
  facet normal 0 -1 -0
    outer loop
      vertex 22.5 16 21.5
      vertex 2.5 16 0
      vertex 22.5 16 0
    endloop
  endfacet
  facet normal 0 1 -0
    outer loop
      vertex 22.5 34 0
      vertex 2.5 34 21.5
      vertex 22.5 34 21.5
    endloop
  endfacet
  facet normal 0 1 0
    outer loop
      vertex 2.5 34 21.5
      vertex 22.5 34 0
      vertex 2.5 34 0
    endloop
  endfacet
  facet normal 0 0 -1
    outer loop
      vertex 2.5 18 19.5
      vertex 22.5 32 19.5
      vertex 22.5 18 19.5
    endloop
  endfacet
  facet normal -0 0 -1
    outer loop
      vertex 22.5 32 19.5
      vertex 2.5 18 19.5
      vertex 2.5 32 19.5
    endloop
  endfacet
  facet normal 0 -1 0
    outer loop
      vertex 2.5 32 4.5
      vertex 22.5 32 19.5
      vertex 2.5 32 19.5
    endloop
  endfacet
  facet normal 0 -1 -0
    outer loop
      vertex 22.5 32 19.5
      vertex 2.5 32 4.5
      vertex 22.5 32 4.5
    endloop
  endfacet
  facet normal -0 0 1
    outer loop
      vertex 4.5 30 4.5
      vertex 22.5 25 4.5
      vertex 22.5 32 4.5
    endloop
  endfacet
  facet normal 0 0 1
    outer loop
      vertex 4.5 20 4.5
      vertex 22.5 25 4.5
      vertex 4.5 30 4.5
    endloop
  endfacet
  facet normal -0 0 1
    outer loop
      vertex 2.5 32 4.5
      vertex 4.5 30 4.5
      vertex 22.5 32 4.5
    endloop
  endfacet
  facet normal 0 0 1
    outer loop
      vertex 4.5 30 4.5
      vertex 2.5 32 4.5
      vertex 2.5 30 4.5
    endloop
  endfacet
  facet normal 0 0 1
    outer loop
      vertex 22.5 25 4.5
      vertex 4.5 20 4.5
      vertex 22.5 18 4.5
    endloop
  endfacet
  facet normal 0 0 1
    outer loop
      vertex 2.5 18 4.5
      vertex 4.5 20 4.5
      vertex 2.5 20 4.5
    endloop
  endfacet
  facet normal 0 0 1
    outer loop
      vertex 4.5 20 4.5
      vertex 2.5 18 4.5
      vertex 22.5 18 4.5
    endloop
  endfacet
  facet normal 0 1 -0
    outer loop
      vertex 22.5 18 4.5
      vertex 2.5 18 19.5
      vertex 22.5 18 19.5
    endloop
  endfacet
  facet normal 0 1 0
    outer loop
      vertex 2.5 18 19.5
      vertex 22.5 18 4.5
      vertex 2.5 18 4.5
    endloop
  endfacet
  facet normal -1 0 0
    outer loop
      vertex 0 40 0
      vertex 0 50 5
      vertex 0 50 0
    endloop
  endfacet
  facet normal -1 -0 0
    outer loop
      vertex 0 50 5
      vertex 0 40 0
      vertex 0 40 5
    endloop
  endfacet
  facet normal -0 0 1
    outer loop
      vertex 0 50 5
      vertex 22.5 40 5
      vertex 22.5 50 5
    endloop
  endfacet
  facet normal 0 0 1
    outer loop
      vertex 22.5 40 5
      vertex 0 50 5
      vertex 0 40 5
    endloop
  endfacet
  facet normal -0 0 1
    outer loop
      vertex 27.5 50 5
      vertex 50 40 5
      vertex 50 50 5
    endloop
  endfacet
  facet normal 0 0 1
    outer loop
      vertex 50 40 5
      vertex 27.5 50 5
      vertex 27.5 40 5
    endloop
  endfacet
  facet normal 1 -0 0
    outer loop
      vertex 50 40 5
      vertex 50 50 0
      vertex 50 50 5
    endloop
  endfacet
  facet normal 1 0 0
    outer loop
      vertex 50 50 0
      vertex 50 40 5
      vertex 50 40 0
    endloop
  endfacet
  facet normal 0 -1 0
    outer loop
      vertex 0 40 0
      vertex 22.5 40 5
      vertex 0 40 5
    endloop
  endfacet
  facet normal 0 -1 -0
    outer loop
      vertex 22.5 40 5
      vertex 0 40 0
      vertex 22.5 40 0
    endloop
  endfacet
  facet normal 0 -1 0
    outer loop
      vertex 27.5 40 0
      vertex 50 40 5
      vertex 27.5 40 5
    endloop
  endfacet
  facet normal 0 -1 -0
    outer loop
      vertex 50 40 5
      vertex 27.5 40 0
      vertex 50 40 0
    endloop
  endfacet
  facet normal -1 0 0
    outer loop
      vertex 0 0 0
      vertex 0 10 5
      vertex 0 10 0
    endloop
  endfacet
  facet normal -1 -0 0
    outer loop
      vertex 0 10 5
      vertex 0 0 0
      vertex 0 0 5
    endloop
  endfacet
  facet normal -0 0 1
    outer loop
      vertex 0 10 5
      vertex 22.5 0 5
      vertex 22.5 10 5
    endloop
  endfacet
  facet normal 0 0 1
    outer loop
      vertex 22.5 0 5
      vertex 0 10 5
      vertex 0 0 5
    endloop
  endfacet
  facet normal -0 0 1
    outer loop
      vertex 27.5 10 5
      vertex 50 0 5
      vertex 50 10 5
    endloop
  endfacet
  facet normal 0 0 1
    outer loop
      vertex 50 0 5
      vertex 27.5 10 5
      vertex 27.5 0 5
    endloop
  endfacet
  facet normal 1 -0 0
    outer loop
      vertex 50 0 5
      vertex 50 10 0
      vertex 50 10 5
    endloop
  endfacet
  facet normal 1 0 0
    outer loop
      vertex 50 10 0
      vertex 50 0 5
      vertex 50 0 0
    endloop
  endfacet
  facet normal 0 1 -0
    outer loop
      vertex 50 10 0
      vertex 27.5 10 5
      vertex 50 10 5
    endloop
  endfacet
  facet normal 0 1 0
    outer loop
      vertex 27.5 10 5
      vertex 50 10 0
      vertex 27.5 10 0
    endloop
  endfacet
  facet normal 0 1 -0
    outer loop
      vertex 22.5 10 0
      vertex 0 10 5
      vertex 22.5 10 5
    endloop
  endfacet
  facet normal 0 1 0
    outer loop
      vertex 0 10 5
      vertex 22.5 10 0
      vertex 0 10 0
    endloop
  endfacet
  facet normal -0 0 1
    outer loop
      vertex 2.5 30 6.5
      vertex 4.5 20 6.5
      vertex 4.5 30 6.5
    endloop
  endfacet
  facet normal 0 0 1
    outer loop
      vertex 4.5 20 6.5
      vertex 2.5 30 6.5
      vertex 2.5 20 6.5
    endloop
  endfacet
  facet normal 1 -0 0
    outer loop
      vertex 4.5 20 6.5
      vertex 4.5 30 4.5
      vertex 4.5 30 6.5
    endloop
  endfacet
  facet normal 1 0 0
    outer loop
      vertex 4.5 30 4.5
      vertex 4.5 20 6.5
      vertex 4.5 20 4.5
    endloop
  endfacet
  facet normal 0 -1 0
    outer loop
      vertex 2.5 20 4.5
      vertex 4.5 20 6.5
      vertex 2.5 20 6.5
    endloop
  endfacet
  facet normal 0 -1 -0
    outer loop
      vertex 4.5 20 6.5
      vertex 2.5 20 4.5
      vertex 4.5 20 4.5
    endloop
  endfacet
  facet normal 0 1 -0
    outer loop
      vertex 4.5 30 4.5
      vertex 2.5 30 6.5
      vertex 4.5 30 6.5
    endloop
  endfacet
  facet normal 0 1 0
    outer loop
      vertex 2.5 30 6.5
      vertex 4.5 30 4.5
      vertex 2.5 30 4.5
    endloop
  endfacet
endsolid OpenSCAD_Model
